<svg xmlns="http://www.w3.org/2000/svg" xmlns:xlink="http://www.w3.org/1999/xlink" version="1.1" id="Layer_1" x="0px" y="0px" viewBox="0 0 512.019 512.019" style="enable-background:new 0 0 512.019 512.019;" xml:space="preserve" width="512" height="512">
<g id="cooking_recipes_book">
	<g id="fill_16_">
		<path style="fill:#D65B5B;" d="M399.322,455.067H138.693c-26.529,0-48.035-21.506-48.035-48.035V71.189    c0-26.529,21.506-48.035,48.035-48.035h260.629c26.529,0,48.035,21.506,48.035,48.035v335.843    C447.357,433.561,425.851,455.067,399.322,455.067z"/>
		<path style="fill:#BF4C4C;" d="M248.272,23.153H138.693c-26.529,0-48.035,21.506-48.035,48.035v335.843    c0,26.529,21.506,48.035,48.035,48.035h260.629c26.529,0,48.035-21.506,48.035-48.035V287.154    C384.864,168.557,284.003,59.851,248.272,23.153z"/>
		<path style="fill:#FFEB99;" d="M359.133,189.993v-80.8h136.316c8.835,0,12.418,11.375,5.178,16.438l-18.639,13.035    c-7.589,5.308-7.589,16.546,0,21.853l18.639,13.035c7.24,5.064,3.657,16.438-5.178,16.438H359.133z"/>
		<path style="fill:#A0F0F2;" d="M359.888,229.877h109.304c12.264,0,20.228,12.921,14.718,23.877l-10.099,20.08    c-4.858,9.659-14.747,15.755-25.559,15.755h-88.363V229.877z"/>
		<path style="fill:#B1EF97;" d="M359.888,329.473h109.304c12.264,0,20.228,12.921,14.718,23.877l-10.099,20.08    c-4.858,9.659-14.747,15.755-25.559,15.755h-88.363V329.473z"/>
		<rect x="359.888" y="229.877" style="fill:#7DE2E2;" width="87.469" height="59.712"/>
		<rect x="359.888" y="329.473" style="fill:#92DD7A;" width="87.469" height="59.712"/>
		<rect x="359.133" y="109.193" style="fill:#FFDE55;" width="88.225" height="80.8"/>
		<path style="fill:#F46262;" d="M365.524,488.866H104.894c-26.529,0-48.035-21.506-48.035-48.035V104.987    c0-26.529,21.506-48.035,48.035-48.035h260.629c26.529,0,48.035,21.506,48.035,48.035V440.83    C413.559,467.359,392.053,488.866,365.524,488.866z"/>
		<path style="fill:#D65B5B;" d="M209.097,440.83V104.987c0-26.529,21.506-48.035,48.035-48.035H104.894    c-26.529,0-48.035,21.506-48.035,48.035V440.83c0,26.529,21.506,48.035,48.035,48.035h152.238    C230.603,488.866,209.097,467.359,209.097,440.83z"/>
		<path style="fill:#FFEB99;" d="M337.8,437.942H161.73c-20.648,0-37.386-16.738-37.386-37.386V299.362    c0-20.648,16.738-37.386,37.386-37.386H337.8c20.648,0,37.386,16.738,37.386,37.386v101.193    C375.186,421.203,358.448,437.942,337.8,437.942z"/>
		<path style="fill:#FFDE55;" d="M161.73,261.976c-20.648,0-37.386,16.738-37.386,37.386v101.193    c0,20.648,16.738,37.386,37.386,37.386h47.366V261.976H161.73z"/>
		<path style="fill:#D8D7DA;" d="M69.076,165.396H29.081c-11.87,0-21.581-9.712-21.581-21.582l0,0    c0-11.87,9.712-21.582,21.581-21.582h39.994c11.87,0,21.582,9.712,21.582,21.582l0,0    C90.657,155.684,80.946,165.396,69.076,165.396z"/>
		<path style="fill:#D8D7DA;" d="M69.076,251.459H29.081c-11.87,0-21.581-9.712-21.581-21.581l0,0    c0-11.87,9.712-21.582,21.581-21.582h39.994c11.87,0,21.582,9.712,21.582,21.582l0,0    C90.657,241.747,80.946,251.459,69.076,251.459z"/>
		<path style="fill:#D8D7DA;" d="M69.076,337.522H29.081c-11.87,0-21.581-9.712-21.581-21.581l0,0    c0-11.87,9.712-21.582,21.581-21.582h39.994c11.87,0,21.582,9.712,21.582,21.582l0,0C90.657,327.81,80.946,337.522,69.076,337.522    z"/>
		<path style="fill:#D8D7DA;" d="M69.076,423.585H29.081c-11.87,0-21.581-9.712-21.581-21.581l0,0    c0-11.87,9.712-21.582,21.581-21.582h39.994c11.87,0,21.582,9.712,21.582,21.582l0,0    C90.657,413.873,80.946,423.585,69.076,423.585z"/>
		<path style="fill:#66D3D0;" d="M316.448,365.623c20.858-6.084,33.817-24.557,28.945-41.26    c-4.872-16.703-25.731-25.311-46.588-19.227c-12.442,3.629-22.066,11.667-26.776,21.107c-2.978,5.97-8.662,10.117-15.301,10.776    c-33.626,3.34-79.374,12.418-87.061,14.66c-12.186,3.555-19.183,16.315-15.628,28.501c3.555,12.186,16.315,19.183,28.501,15.628    c7.687-2.242,51.141-19.184,81.289-34.447c5.953-3.014,12.974-2.573,18.695,0.86C291.569,367.65,304.006,369.252,316.448,365.623z    "/>
		<path style="fill:#4BBCB6;" d="M169.666,351.679c-12.186,3.555-19.183,16.315-15.628,28.501    c3.554,12.186,16.315,19.183,28.501,15.629c3.367-0.982,13.594-4.784,26.558-10.029v-42.007    C189.947,347.081,173.935,350.434,169.666,351.679z"/>
		<path style="fill:#57565C;" d="M249.765,218.694L249.765,218.694c-15.52,0-28.1-12.581-28.1-28.1v-20.43    c0-4.237,3.434-7.671,7.671-7.671h40.859c4.237,0,7.671,3.434,7.671,7.671v20.43C277.865,206.113,265.285,218.694,249.765,218.694    z"/>
		<ellipse style="fill:#FFA6BB;" cx="155.769" cy="190.594" rx="29.973" ry="23.869"/>
		<ellipse style="fill:#FFA6BB;" cx="343.761" cy="190.594" rx="29.973" ry="23.869"/>
	</g>
	<g id="stroke_18_">
		<path d="M337.8,254.476H161.73c-24.75,0-44.886,20.136-44.886,44.886v101.193c0,24.75,20.136,44.886,44.886,44.886h121.313    c4.142,0,7.5-3.358,7.5-7.5c0-4.142-3.358-7.5-7.5-7.5H161.73c-16.479,0-29.886-13.407-29.886-29.886V299.362    c0-16.479,13.406-29.886,29.886-29.886H337.8c16.479,0,29.886,13.407,29.886,29.886v101.193c0,16.479-13.406,29.886-29.886,29.886    h-24.237c-4.143,0-7.5,3.358-7.5,7.5c0,4.142,3.357,7.5,7.5,7.5H337.8c24.75,0,44.886-20.136,44.886-44.886V299.362    C382.685,274.612,362.55,254.476,337.8,254.476z"/>
		<path d="M318.549,372.823c24.794-7.233,40.066-29.914,34.044-50.56c-3.007-10.309-10.691-18.474-21.639-22.991    c-10.369-4.28-22.532-4.754-34.25-1.335c-14.084,4.108-25.524,13.206-31.387,24.959c-1.885,3.778-5.373,6.268-9.331,6.661    c-34.305,3.407-80.215,12.53-88.42,14.924c-7.817,2.28-14.278,7.468-18.193,14.607c-3.915,7.14-4.815,15.377-2.535,23.194    c3.88,13.298,17.874,26.125,37.802,20.728c8.255-2.236,51.828-19.389,82.576-34.956c3.548-1.796,7.83-1.573,11.448,0.6    C289.927,375.41,304.463,376.931,318.549,372.823L318.549,372.823z M286.382,355.791c-8.068-4.84-17.767-5.259-25.941-1.12    c-29.452,14.911-72.374,31.713-80.002,33.939c-8.187,2.39-16.81-2.331-19.2-10.528c-1.158-3.971-1.77-15.912,10.528-19.201    c7.673-2.052,52.844-11.133,85.702-14.397c9.119-0.905,17.07-6.472,21.27-14.892c3.944-7.907,12.23-14.357,22.166-17.255    c3.808-1.111,30.65-6.096,37.287,14.127c4.127,12.576-6.99,27.043-23.844,31.96C304.415,361.321,293.959,360.337,286.382,355.791z    "/>
		<path d="M504.924,167.409l-18.639-13.035c-1.583-1.107-2.49-2.849-2.49-4.781c0-1.931,0.907-3.673,2.489-4.78l18.64-13.036    c6.037-4.222,8.509-11.49,6.295-18.517c-2.213-7.026-8.403-11.567-15.771-11.567h-74.496    c-1.711-29.094-25.914-52.241-55.429-52.241H104.895c-0.153,0-0.304,0.01-0.458,0.012c7.284-11.553,20.035-18.81,34.255-18.81    h260.63c22.352,0,40.535,18.184,40.535,40.535v8.062c0,4.142,3.357,7.5,7.5,7.5c4.143,0,7.5-3.358,7.5-7.5v-8.062    c0-30.622-24.913-55.535-55.535-55.535h-260.63c-23.757,0-44.53,14.779-52.365,37.002c-21.517,7.657-36.968,28.22-36.968,52.332    v9.746h-17.24c-4.142,0-7.5,3.358-7.5,7.5c0,4.142,3.358,7.5,7.5,7.5h36.957c7.765,0,14.081,6.317,14.081,14.082    c0,7.765-6.316,14.081-14.081,14.081H29.081c-7.765,0-14.081-6.317-14.081-14.081c0-0.868,2.491-9.772-5.749-11.333    C1.011,130.921,0,142.021,0,143.814c0,16.036,13.046,29.081,29.081,29.081h20.278v27.9H29.081C13.046,200.795,0,213.841,0,229.877    c0,16.036,13.046,29.082,29.081,29.082h20.278v27.9H29.081C13.046,286.858,0,299.904,0,315.94    c0,16.036,13.046,29.081,29.081,29.081h20.278v27.9H29.081C13.046,372.921,0,385.967,0,402.003    c0,16.036,13.046,29.081,29.081,29.081h20.278v9.746c0,30.622,24.913,55.535,55.535,55.535h260.629    c24.115,0,44.68-15.455,52.335-36.976c21.98-7.774,36.999-28.729,36.999-52.357v-10.967c10.999-2.02,20.494-9.008,25.652-19.265    l10.1-20.08c3.766-7.487,3.389-16.217-1.009-23.352c-4.398-7.135-12.027-11.395-20.409-11.395h-14.334V296.47    c10.999-2.02,20.494-9.008,25.652-19.265l10.1-20.08c3.766-7.487,3.389-16.217-1.009-23.352    c-4.398-7.135-12.027-11.395-20.409-11.395h-14.334v-24.884h40.591c7.367,0,13.558-4.54,15.771-11.567    C513.433,178.899,510.961,171.631,504.924,167.409z M15,229.877c0-7.765,6.316-14.082,14.081-14.082h39.995    c7.765,0,14.081,6.317,14.081,14.082c0,7.765-6.316,14.082-14.081,14.082H29.081C21.316,243.959,15,237.642,15,229.877z     M15,315.94c0-7.765,6.316-14.082,14.081-14.082h39.995c7.765,0,14.081,6.317,14.081,14.082c0,7.765-6.316,14.081-14.081,14.081    H29.081C21.316,330.022,15,323.705,15,315.94z M15,402.003c0-7.765,6.316-14.082,14.081-14.082h39.995    c7.765,0,14.081,6.317,14.081,14.082c0,7.765-6.316,14.081-14.081,14.081H29.081C21.316,416.085,15,409.768,15,402.003z     M406.059,440.83c0,22.351-18.184,40.535-40.535,40.535H104.895c-22.352,0-40.535-18.184-40.535-40.535v-9.746    c0,0,33.798,2.668,33.798-29.081c0-31.749-33.798-29.082-33.798-29.082v-27.9c0,0,33.798,2.401,33.798-29.081    s-33.798-29.082-33.798-29.082v-27.9c0,0,33.798,1.613,33.798-29.082c0-30.694-33.798-29.082-33.798-29.082v-27.9    c0,0,33.798,2.692,33.798-29.081s-33.798-29.082-33.798-29.082v-9.746c0-22.351,18.184-40.535,40.535-40.535h260.629    c22.352,0,40.535,18.184,40.535,40.535V440.83z M421.048,441.257c0.001-0.143,0.011-0.284,0.011-0.427v-44.146h18.799v10.347    C439.857,421.152,432.511,433.961,421.048,441.257z M477.209,349.98l-10.1,20.081c-3.605,7.17-10.832,11.625-18.858,11.625    h-27.192v-44.712h48.133C476.216,336.471,480.731,342.793,477.209,349.98z M421.059,321.973v-24.884h18.799v24.884H421.059z     M477.209,250.384l-10.1,20.081c-3.605,7.17-10.832,11.625-18.858,11.625h-27.192v-44.712h48.133    C475.151,236.766,480.734,242.349,477.209,250.384z M439.857,222.377h-18.799v-24.884h18.799V222.377z M495.448,182.493h-74.39    v-65.8h74.39c1.494,0.088,2.83,1.513,0.88,2.792l-18.641,13.036c-5.568,3.895-8.893,10.277-8.893,17.072    c0,6.796,3.324,13.178,8.894,17.073l18.64,13.035C497.298,180.197,497.922,182.335,495.448,182.493z"/>
		<path d="M249.765,226.194c-19.63,0-35.6-15.97-35.6-35.6v-20.43c0-8.365,6.806-15.171,15.171-15.171h40.858    c8.365,0,15.171,6.806,15.171,15.171v20.43C285.364,210.225,269.394,226.194,249.765,226.194z M229.336,169.993    c-0.094,0-0.171,20.601-0.171,20.601c0,11.359,9.241,20.6,20.6,20.6c11.358,0,20.6-9.241,20.601-20.601v-20.43    C270.365,170.07,229.336,169.993,229.336,169.993z"/>
		<path d="M330.422,177.491c-4.143,0-7.5-3.358-7.5-7.5v-12.451c0-4.142,3.357-7.5,7.5-7.5s7.5,3.358,7.5,7.5v12.451    C337.922,174.133,334.565,177.491,330.422,177.491z"/>
		<path d="M169.108,177.491c-4.143,0-7.5-3.358-7.5-7.5v-12.451c0-4.142,3.357-7.5,7.5-7.5c4.143,0,7.5,3.358,7.5,7.5v12.451    C176.608,174.133,173.251,177.491,169.108,177.491z"/>
	</g>
</g>
</svg>